<!DOCTYPE svg PUBLIC "-//W3C//DTD SVG 1.1//EN" "http://www.w3.org/Graphics/SVG/1.1/DTD/svg11.dtd">
<!-- Uploaded to: SVG Repo, www.svgrepo.com, Transformed by: SVG Repo Mixer Tools -->
<svg fill="#030E4F" height="213px" width="213px" version="1.1" id="Layer_1" xmlns="http://www.w3.org/2000/svg" xmlns:xlink="http://www.w3.org/1999/xlink" viewBox="-71.28 -71.28 439.56 439.56" xml:space="preserve" stroke="#030E4F" stroke-width="0.00297">
<g id="SVGRepo_bgCarrier" stroke-width="0" transform="translate(0,0), scale(1)">
<rect x="-71.28" y="-71.28" width="439.56" height="439.56" rx="219.78" fill="#F49F1C" strokewidth="0"/>
</g>
<g id="SVGRepo_tracerCarrier" stroke-linecap="round" stroke-linejoin="round" stroke="#CCCCCC" stroke-width="4.752000000000001"> <g> <g> <g> <path d="M280.214,39.211H16.786C7.531,39.211,0,46.742,0,55.997v24.335c0,9.256,7.531,16.787,16.786,16.787h263.428 c9.255,0,16.786-7.531,16.786-16.787V55.997C297,46.742,289.469,39.211,280.214,39.211z"/> <path d="M280.214,119.546H16.786C7.531,119.546,0,127.077,0,136.332v24.336c0,9.255,7.531,16.786,16.786,16.786h263.428 c9.255,0,16.786-7.531,16.786-16.786v-24.336C297,127.077,289.469,119.546,280.214,119.546z"/> <path d="M280.214,199.881H16.786C7.531,199.881,0,207.411,0,216.668v24.335c0,9.255,7.531,16.786,16.786,16.786h263.428 c9.255,0,16.786-7.531,16.786-16.786v-24.335C297,207.411,289.469,199.881,280.214,199.881z"/> </g> </g> </g> </g>
<g id="SVGRepo_iconCarrier"> <g> <g> <g> <path d="M280.214,39.211H16.786C7.531,39.211,0,46.742,0,55.997v24.335c0,9.256,7.531,16.787,16.786,16.787h263.428 c9.255,0,16.786-7.531,16.786-16.787V55.997C297,46.742,289.469,39.211,280.214,39.211z"/> <path d="M280.214,119.546H16.786C7.531,119.546,0,127.077,0,136.332v24.336c0,9.255,7.531,16.786,16.786,16.786h263.428 c9.255,0,16.786-7.531,16.786-16.786v-24.336C297,127.077,289.469,119.546,280.214,119.546z"/> <path d="M280.214,199.881H16.786C7.531,199.881,0,207.411,0,216.668v24.335c0,9.255,7.531,16.786,16.786,16.786h263.428 c9.255,0,16.786-7.531,16.786-16.786v-24.335C297,207.411,289.469,199.881,280.214,199.881z"/> </g> </g> </g> </g>
</svg>